<?xml version="1.0" encoding="UTF-8"?>
<svg id="uuid-8a82546e-add5-410a-8e9a-77e018ca104b" data-name="Capa 2" xmlns="http://www.w3.org/2000/svg" viewBox="0 0 48.4 48">
  <g id="uuid-2ea5b8f4-7387-4472-9573-43ff34c823c5" data-name="Capa 1">
    <g>
      <g>
        <path d="m3.8,47.6c-1.6,0-2.9-1.3-2.9-2.9V7.6c0-1,.5-1.9,1.3-2.4L9,.4h30.9l6.2,4.8c.7.6,1.1,1.4,1.1,2.3v37.1c0,1.6-1.3,2.9-2.9,2.9H3.8Z" style="fill: #efefef; stroke-width: 0px;"/>
        <path d="m39.7.8l6.1,4.7c.6.5,1,1.2,1,2v37.1c0,1.4-1.1,2.5-2.5,2.5H3.8c-1.4,0-2.5-1.1-2.5-2.5V7.6c0-.8.4-1.6,1.1-2.1L9.1.8h30.6m.3-.8H8.8L1.9,4.9c-.9.6-1.4,1.7-1.4,2.8v37c0,1.9,1.5,3.4,3.4,3.4h40.4c1.9,0,3.4-1.5,3.4-3.4V7.5c0-1-.5-2-1.3-2.7l-6.3-4.9h0Z" style="stroke-width: 0px;"/>
      </g>
      <g>
        <path d="m7.6,33.2V.9L1.9,4.8c-.9.6-1.4,1.6-1.4,2.7v36c0,.9.4,1.7,1,2.3l.3-.3,5.9-12.3Z" style="fill: #c6c6c6; stroke-width: 0px;"/>
        <path d="m1.4,46.3l-.3-.3c-.7-.7-1.1-1.6-1.1-2.6V7.4c0-1.2.6-2.3,1.6-3L8,0v33.3s-6,12.4-6,12.4l-.6.6ZM7.2,1.7l-5.1,3.4c-.8.5-1.3,1.4-1.3,2.3v36c0,.6.2,1.2.6,1.7l5.8-12V1.7Z" style="stroke-width: 0px;"/>
      </g>
      <g>
        <path d="m40.8,33.2V.9s5.7,3.9,5.7,3.9c.9.6,1.4,1.6,1.4,2.7v36c0,.9-.4,1.7-1,2.3l-.3-.3-5.9-12.3Z" style="fill: #c6c6c6; stroke-width: 0px;"/>
        <path d="m47,46.3l-.7-.7-5.9-12.5V0l6.4,4.3c1,.7,1.6,1.8,1.6,3v36c0,1-.4,1.9-1.1,2.6l-.3.3Zm-5.8-13.2l5.8,12c.4-.5.6-1.1.6-1.7V7.4c0-.9-.5-1.8-1.3-2.3l-5.1-3.4v31.4Z" style="stroke-width: 0px;"/>
      </g>
      <g>
        <rect x="6.7" y=".4" width="34.5" height="34.5" rx="2.9" ry="2.9" style="fill: #fff; stroke-width: 0px;"/>
        <path d="m38.3.8c1.4,0,2.5,1.1,2.5,2.5v28.6c0,1.4-1.1,2.5-2.5,2.5H9.7c-1.4,0-2.5-1.1-2.5-2.5V3.4c0-1.4,1.1-2.5,2.5-2.5h28.6m0-.8H9.7c-1.9,0-3.4,1.5-3.4,3.4v28.6c0,1.9,1.5,3.4,3.4,3.4h28.6c1.9,0,3.4-1.5,3.4-3.4V3.4c0-1.9-1.5-3.4-3.4-3.4h0Z" style="stroke-width: 0px;"/>
      </g>
      <path d="m19.6,24.7c-.9,0-1.3-.5-1.3-1.4v-12.1c0-.9.5-1.4,1.4-1.4h5c1.6,0,2.9.4,3.7,1.2s1.3,1.9,1.3,3.2-.3,2-.9,2.7c-.6.7-1.4,1.2-2.5,1.4.7.2,1.3.8,1.8,1.6l1.6,2.9c.2.4.3.9.1,1.2-.1.4-.5.6-1.1.6s-.7,0-.9-.2-.4-.4-.6-.7l-2.1-3.9c-.3-.5-.5-.8-.9-.9s-.8-.2-1.3-.2h-2v4.7c0,.9-.4,1.4-1.3,1.4Zm1.3-8h3.3c1.9,0,2.9-.8,2.9-2.4s-1-2.4-2.9-2.4h-3.3v4.7Z" style="stroke-width: 0px;"/>
    </g>
  </g>
</svg>