<?xml version="1.0" encoding="UTF-8"?>
<svg id="uuid-c1e52767-f6f7-43d7-978d-f04ca1bbd8d2" data-name="Capa 2" xmlns="http://www.w3.org/2000/svg" viewBox="0 0 12 12">
  <g id="uuid-2695248f-b389-4508-81ec-ecb3b672e826" data-name="Capa 1">
    <path d="m7.4,6L11.7,1.7c.4-.4.4-1,0-1.4h0c-.4-.4-1-.4-1.4,0l-4.3,4.3L1.7.3C1.3,0,.7,0,.3.3h0C0,.7,0,1.3.3,1.7l4.3,4.3L.3,10.3c-.4.4-.4,1,0,1.4h0c.4.4,1,.4,1.4,0l4.3-4.3,4.3,4.3c.4.4,1,.4,1.4,0h0c.4-.4.4-1,0-1.4l-4.3-4.3Z" style="fill: #fff; stroke-width: 0px;"/>
  </g>
</svg>